Coordinates
version=1
nRows=16
nColumns=40
inDegrees=yes

Units are S.I. units (second, meters, Newtons, ...)
Angles are in degrees.

endheader
time	pelvis_tilt	pelvis_list	pelvis_rotation	pelvis_tx	pelvis_ty	pelvis_tz	hip_flexion_r	hip_adduction_r	hip_rotation_r	knee_angle_r	knee_angle_r_beta	ankle_angle_r	subtalar_angle_r	mtp_angle_r	hip_flexion_l	hip_adduction_l	hip_rotation_l	knee_angle_l	knee_angle_l_beta	ankle_angle_l	subtalar_angle_l	mtp_angle_l	lumbar_extension	lumbar_bending	lumbar_rotation	arm_flex_r	arm_add_r	arm_rot_r	elbow_flex_r	pro_sup_r	wrist_flex_r	wrist_dev_r	arm_flex_l	arm_add_l	arm_rot_l	elbow_flex_l	pro_sup_l	wrist_flex_l	wrist_dev_l
      1.39000000	      4.07060597	     -6.76744073	      1.01520804	     -0.04293838	      0.89874138	      1.02531983	      5.31999325	      8.36635850	    -19.79062724	    -19.16945650	     -0.33457013	      5.87094745	      3.87972700	     -2.20362853	      9.59874065	     11.66410005	      6.67462989	    -59.94711951	     -1.04627461	      0.45310162	      9.94560630	     -8.76605367	     -9.95470458	      9.54723038	      0.75261349	      5.06827328	    -11.26784050	     18.79301223	     13.65045812	     89.95437384	      0.00000000	      0.00000000	      8.92713455	      6.85051816	    -13.59877705	     26.67812735	     89.95437384	      0.00000000	      0.00000000
      1.40000000	      4.25890957	     -6.57347163	      0.90170219	     -0.03393787	      0.89926436	      1.02615960	      4.37269555	      8.30436121	    -19.37444728	    -19.03995358	     -0.33230988	      6.38070980	      3.92677624	     -2.28827681	     10.59608893	     11.07257607	      6.20710703	    -59.64030359	     -1.04091966	      1.31913090	      9.19038192	     -9.11548326	    -10.10560593	      9.26985746	      0.96222154	      5.98492907	    -11.44992923	     18.79931423	     13.73361833	     89.95437384	      0.00000000	      0.00000000	      8.54115781	      6.72023962	    -13.70662506	     25.74444038	     89.95437384	      0.00000000	      0.00000000
      1.41000000	      4.47822182	     -6.42813264	      0.68445403	     -0.02500627	      0.89989041	      1.02727127	      3.32676111	      8.26935050	    -19.15211223	    -18.78498831	     -0.32785990	      6.85158433	      4.09797601	     -2.41033308	     11.44071246	     10.62840898	      5.98115099	    -59.01240709	     -1.02996080	      2.10360812	      8.22350241	     -9.76451360	    -10.33546578	      9.02634021	      1.29980538	      6.83436518	    -11.65820124	     18.65206891	     14.02840101	     89.95437384	      0.00000000	      0.00000000	      8.13661272	      6.60245675	    -13.74160663	     24.90510263	     89.95437384	      0.00000000	      0.00000000
      1.42000000	      4.52102662	     -6.33704414	      0.48254678	     -0.01622075	      0.90019165	      1.02830221	      2.55450232	      8.27560027	    -18.98301438	    -18.66277811	     -0.32572693	      7.16997584	      4.14331162	     -2.46095734	     12.52436758	     10.21398183	      5.72683585	    -58.31267092	     -1.01774810	      2.75572239	      7.87457151	     -9.95270080	    -10.35487511	      8.83370547	      1.57823665	      7.71979573	    -11.85468285	     18.53966151	     14.19874201	     89.95437384	      0.00000000	      0.00000000	      7.66836405	      6.52931966	    -13.80872831	     24.10052633	     89.95437384	      0.00000000	      0.00000000
      1.43000000	      4.60740341	     -6.10176544	      0.28239381	     -0.00773850	      0.90051160	      1.02911340	      1.73299432	      8.14166883	    -18.50782636	    -18.51074059	     -0.32307337	      7.62689287	      4.21993285	     -2.54178397	     13.48120278	      9.54386210	      5.42306234	    -57.32590631	     -1.00052581	      3.64020544	      7.37590944	    -10.29111932	    -10.48113220	      8.50414175	      1.83348060	      8.58794776	    -12.07195800	     18.22572232	     14.55270286	     89.95437384	      0.00000000	      0.00000000	      7.25718412	      6.46182453	    -13.80155081	     23.27779921	     89.95437384	      0.00000000	      0.00000000
      1.44000000	      4.70662213	     -5.97310010	      0.20037061	      0.00101296	      0.90079708	      1.02994831	      0.83541964	      8.11784024	    -18.34288954	    -18.22407288	     -0.31807007	      8.04234360	      4.29862890	     -2.61103797	     14.33005635	      9.08131391	      5.21854823	    -56.07329444	     -0.97866361	      4.44434034	      6.99800088	    -10.58439125	    -10.58527427	      8.28337150	      1.99966748	      9.38752165	    -12.26310225	     17.80152499	     14.93864979	     89.95437384	      0.00000000	      0.00000000	      6.76053484	      6.43239605	    -13.73879884	     22.57747350	     89.95437384	      0.00000000	      0.00000000
      1.45000000	      4.58047791	     -5.94844797	     -0.01140437	      0.00957688	      0.90060451	      1.03096714	      0.32364127	      8.12779072	    -18.36661768	    -18.19898102	     -0.31763214	      8.22734812	      4.24047411	     -2.62334679	     15.42156722	      8.83201375	      5.20843588	    -54.71508838	     -0.95495844	      4.84353116	      6.76329950	    -10.56173865	    -10.45761283	      8.16809900	      2.16620263	     10.17483752	    -12.48060903	     17.51535795	     15.45146620	     89.95437384	      0.00000000	      0.00000000	      6.10214630	      6.50885718	    -13.70413968	     22.12866381	     89.95437384	      0.00000000	      0.00000000
      1.46000000	      5.25505542	     -5.55903172	     -0.15597811	      0.01853364	      0.90178671	      1.03162307	     -1.36145543	      7.79088770	    -18.15794897	    -17.64406612	     -0.30794705	      8.61186100	      4.89186106	     -2.94720272	     15.21427567	      8.08635996	      5.30189337	    -52.66731308	     -0.91921802	      5.48772914	      6.54858705	    -11.86146187	    -11.24228375	      7.63638590	      2.39254868	     11.04152238	    -12.40753225	     15.48300304	     15.80052798	     89.95437384	      0.00000000	      0.00000000	      5.72761579	      6.43477838	    -13.33532858	     21.30505910	     89.95437384	      0.00000000	      0.00000000
      1.47000000	      5.37753675	     -5.32629648	     -0.47202643	      0.02719755	      0.90199522	      1.03254003	     -2.21235244	      7.55391010	    -18.07838828	    -17.51659796	     -0.30572231	      8.96628851	      5.10476061	     -3.21631642	     15.70304281	      7.58932329	      5.50518695	    -50.70831866	     -0.88502712	      5.85979138	      6.81838900	    -12.48974160	    -11.42720101	      7.26866647	      2.76062548	     11.78200265	    -12.52015948	     14.54106047	     16.28064291	     89.95437384	      0.00000000	      0.00000000	      5.25858002	      6.42560133	    -13.23904441	     20.61055339	     89.95437384	      0.00000000	      0.00000000
      1.48000000	      5.07301629	     -5.39440006	     -0.60782563	      0.03546448	      0.90127849	      1.03342273	     -2.46490192	      7.66873948	    -18.12731288	    -17.55952792	     -0.30647158	      9.16310081	      5.01792149	     -3.22816717	     16.86985288	      7.53381384	      5.64441455	    -48.97684642	     -0.85480723	      6.11829848	      6.71467355	    -12.33037801	    -11.15101223	      7.25621276	      2.82325697	     12.56377434	    -12.70103223	     14.39410937	     16.81412652	     89.95437384	      0.00000000	      0.00000000	      4.65440670	      6.48717450	    -13.30329658	     20.10352446	     89.95437384	      0.00000000	      0.00000000
      1.49000000	      5.48128734	     -4.91964262	     -0.99127662	      0.04410409	      0.90184954	      1.03411382	     -3.63648283	      7.13789357	    -17.76664416	    -17.43217569	     -0.30424886	      9.67309194	      5.36669826	     -3.51734064	     16.71872530	      6.74211403	      6.03281284	    -46.39272167	     -0.80970574	      6.65655050	      7.18943120	    -12.55926340	    -11.69356098	      6.61009711	      3.28497818	     13.28771591	    -12.79441484	     13.32439513	     17.38701782	     89.95437384	      0.00000000	      0.00000000	      4.42703503	      6.44597519	    -13.39869430	     19.12699861	     89.95437384	      0.00000000	      0.00000000
      1.50000000	      5.13701953	     -5.05230042	     -1.10903354	      0.05251071	      0.90086349	      1.03479622	     -3.85900992	      7.30950660	    -17.85950301	    -17.47649537	     -0.30502239	      9.86649875	      5.28850224	     -3.53280408	     17.80880965	      6.78483168	      6.27518549	    -44.42464891	     -0.77535639	      6.83213903	      7.12962635	    -12.36854627	    -11.35606839	      6.69782963	      3.31819333	     14.02955514	    -12.94508449	     13.17899697	     17.89052238	     89.95437384	      0.00000000	      0.00000000	      3.83911937	      6.49854916	    -13.47722553	     18.61891320	     89.95437384	      0.00000000	      0.00000000
      1.51000000	      5.39787650	     -4.59174335	     -1.50660253	      0.06107819	      0.90107530	      1.03535587	     -4.80280390	      6.77799437	    -17.39252410	    -17.44433868	     -0.30446115	     10.43832736	      5.51318396	     -3.76347112	     17.67950181	      6.02674894	      6.66169612	    -41.54162622	     -0.72503815	      6.85995236	      7.26189415	    -12.30263458	    -11.75244198	      6.06683687	      3.80492610	     14.67810310	    -13.07305142	     12.45153049	     18.49546629	     89.95437384	      0.00000000	      0.00000000	      3.67905210	      6.42561199	    -13.65960857	     17.57103600	     89.95437384	      0.00000000	      0.00000000
      1.52000000	      5.41065466	     -4.51761199	     -1.76090818	      0.06966881	      0.90065010	      1.03602434	     -5.48363579	      6.66345716	    -17.41582464	    -17.38437614	     -0.30341460	     10.64187690	      5.77788754	     -3.96643959	     17.94976922	      5.80453092	      7.08829452	    -38.81669492	     -0.67747913	      6.80868446	      7.23319326	    -12.24177283	    -11.83779086	      5.88598053	      4.06310025	     15.35309419	    -13.14481523	     11.84982443	     19.05074805	     89.95437384	      0.00000000	      0.00000000	      3.22474177	      6.46698755	    -13.89404901	     17.02843884	     89.95437384	      0.00000000	      0.00000000
      1.53000000	      5.30596738	     -4.46909723	     -1.94095611	      0.07816609	      0.89994508	      1.03647528	     -5.97803537	      6.56302072	    -17.45281619	    -17.43865706	     -0.30436198	     10.92406994	      6.00218927	     -4.18073006	     18.41071449	      5.62050959	      7.40998438	    -36.29139907	     -0.63340440	      6.18044814	      6.91739386	    -12.03728760	    -11.80008793	      5.75864214	      4.24669017	     15.96500133	    -13.26920901	     11.49469330	     19.68753215	     89.95437384	      0.00000000	      0.00000000	      2.78451053	      6.50423335	    -14.13916157	     16.49171660	     89.95437384	      0.00000000	      0.00000000
      1.54000000	      5.10252653	     -4.45444883	     -2.11374332	      0.08659252	      0.89902878	      1.03681613	     -6.34428934	      6.50679547	    -17.42701369	    -17.50494838	     -0.30551898	     11.20933134	      6.07332384	     -4.33979047	     18.87163128	      5.44689588	      7.63687948	    -33.56678158	     -0.58585086	      5.33676992	      6.36457165	    -11.76911982	    -11.66182946	      5.69232348	      4.41152491	     16.53856788	    -13.40097810	     11.25955439	     20.38685700	     89.95437384	      0.00000000	      0.00000000	      2.29413229	      6.53317308	    -14.33424468	     16.08987622	     89.95437384	      0.00000000	      0.00000000
